<svg xmlns="http://www.w3.org/2000/svg" width="40" height="40" fill="none" viewBox="0 0 40 40">
  <path stroke="#292929" stroke-opacity=".72" d="M.5.5h39v39H.5z"/>
  <path fill="#000" stroke="#fff" stroke-width=".5" d="M28.669 36.666a12.44 12.44 0 0 1-.118.06c-2.106 1.075-4.234 1.697-6.762 1.98-.271.028-1.022.044-1.79.044s-1.518-.016-1.79-.045c-1.463-.166-2.745-.435-3.966-.825C7.451 35.688 2.44 29.774 1.42 22.73c-.151-1.03-.17-1.32-.17-2.728 0-1.409.019-1.704.17-2.734a18.547 18.547 0 0 1 3.308-8.19c3.162-4.42 8.148-7.289 13.475-7.772l.292-.025.113-.01.003.007.172-.018c.061-.007.257-.01.542-.01.277 0 .623.004.971.01.703.011 1.392.031 1.56.048 1.323.141 2.63.415 3.901.818 6.792 2.193 11.803 8.107 12.823 15.15.151 1.03.17 1.32.17 2.728 0 1.408-.019 1.705-.17 2.735a18.673 18.673 0 0 1-4.414 9.582 19.151 19.151 0 0 1-3.79 3.342l-2.875-4.35c-1.656-2.505-5.026-7.613-7.495-11.356a713.781 713.781 0 0 0-4.583-6.904l-.01-.015-.013-.014a.824.824 0 0 0-.459-.28c-.183-.042-.434-.048-.803-.048a6.96 6.96 0 0 0-.639.016.887.887 0 0 0-.329.095l-.01.005c-.132.07-.25.166-.347.284l-.003.003-.117.149-.054.068v.086l-.013 7.447-.006 7.448v.057l.025.051.08.168.002.004a.956.956 0 0 0 .335.37l.003.001.168.105.06.038h.715c.539 0 .711-.007.89-.092a.927.927 0 0 0 .446-.456.693.693 0 0 0 .065-.28c.01-.13.017-.344.022-.713.01-.728.013-2.089.02-4.679v-.129a971.35 971.35 0 0 1 .023-4.778 528.028 528.028 0 0 1 3.39 4.992l3.804 5.635.006.009 3.037 4.1c.98 1.33 1.96 2.648 2.958 3.966Zm.89-.211c.013-.009.02-.016.02-.019 0-.021-.008-.025-.036-.007l.004.007a.24.24 0 0 0 .012.019Zm-2.414-23.599-.001-.002a.99.99 0 0 0-.499-.576.75.75 0 0 0-.315-.09 6.95 6.95 0 0 0-.567-.012c-.288 0-.464 0-.586.013a.805.805 0 0 0-.319.095l-.012.006a1.045 1.045 0 0 0-.487.618l-.003.01-.002.01c-.005.025-.006.055-.007.07a108.459 108.459 0 0 0-.018 1.326c-.006.845-.009 2.072-.009 3.644v4.923l.04.062 1.182 1.806 1.174 1.805.458.704.002-.84.013-6.678c.003-2.326.003-4.006-.002-5.117-.002-.555-.006-.97-.01-1.252a14.368 14.368 0 0 0-.015-.427v-.002c-.002-.017-.005-.059-.017-.096Z"/>
</svg>
